#define r40o_width 40
#define r40o_height 40
static unsigned char r40o_bits[] = {
   0x00, 0x00, 0x00, 0x00, 0x00, 0x00, 0x00, 0xfe, 0x00, 0x00, 0x80, 0x1f,
   0x82, 0xe0, 0x07, 0x80, 0x10, 0x82, 0x20, 0x04, 0x80, 0x10, 0x82, 0x20,
   0x04, 0x80, 0xf0, 0x83, 0x3f, 0x04, 0x80, 0x00, 0x00, 0x00, 0x04, 0x80,
   0xff, 0xff, 0xff, 0x07, 0x00, 0x08, 0x01, 0x41, 0x00, 0x00, 0x08, 0x01,
   0x41, 0x00, 0x00, 0x08, 0x01, 0x41, 0x00, 0x00, 0x08, 0x01, 0x41, 0x00,
   0x00, 0x08, 0x01, 0x41, 0x00, 0x00, 0xf8, 0xff, 0x7f, 0x00, 0x00, 0x08,
   0x10, 0x40, 0x00, 0x00, 0x08, 0x10, 0x40, 0x00, 0x00, 0x08, 0x10, 0x40,
   0x00, 0x00, 0x08, 0x10, 0x40, 0x00, 0x00, 0x08, 0x10, 0x40, 0x00, 0x00,
   0xf8, 0xff, 0x7f, 0x00, 0x00, 0x08, 0x01, 0x41, 0x00, 0x00, 0x08, 0x01,
   0x41, 0x00, 0x00, 0x08, 0x01, 0x41, 0x00, 0x00, 0x08, 0x01, 0x41, 0x00,
   0x00, 0x08, 0x01, 0x41, 0x00, 0x00, 0xf8, 0xff, 0x7f, 0x00, 0x00, 0x08,
   0x10, 0x40, 0x00, 0x00, 0x08, 0x10, 0x40, 0x00, 0x00, 0x08, 0x10, 0x40,
   0x00, 0x00, 0x08, 0x10, 0x40, 0x00, 0x00, 0x08, 0x10, 0x40, 0x00, 0x00,
   0x08, 0x10, 0x40, 0x00, 0x00, 0xfe, 0xff, 0xff, 0x00, 0x00, 0x03, 0x00,
   0x80, 0x01, 0x00, 0x01, 0x00, 0x00, 0x01, 0x80, 0xff, 0xff, 0xff, 0x03,
   0xc0, 0x00, 0x00, 0x00, 0x06, 0x40, 0x00, 0x00, 0x00, 0x04, 0xc0, 0xff,
   0xff, 0xff, 0x07, 0x00, 0x00, 0x00, 0x00, 0x00};
