#define next1_width 48
#define next1_height 32
static unsigned char next1_bits[] = {
  0x00, 0x00, 0x00, 0x00, 0x00, 0x00, 0x00, 0x00, 0x00, 0x00, 0x00, 0x00,
  0x00, 0x00, 0x00, 0x00, 0x00, 0x00, 0x00, 0x00, 0x00, 0x00, 0x00, 0x00,
  0x00, 0x00, 0x00, 0x00, 0x00, 0x00, 0x00, 0x00, 0x00, 0x78, 0x00, 0x00,
  0x00, 0x00, 0x00, 0x78, 0x00, 0x00, 0x00, 0x20, 0x00, 0x78, 0x00, 0x00,
  0x00, 0xe0, 0x00, 0x78, 0x00, 0x00, 0x00, 0xe0, 0x03, 0x78, 0x00, 0x00,
  0x00, 0xe0, 0x07, 0x78, 0x00, 0x00, 0x00, 0xe0, 0x1f, 0x78, 0x00, 0x00,
  0x00, 0xe0, 0x3f, 0x78, 0x00, 0x00, 0x00, 0xe0, 0xff, 0x78, 0x00, 0x00,
  0x00, 0xe0, 0xff, 0x7b, 0x00, 0x00, 0x00, 0xe0, 0xff, 0x7f, 0x00, 0x00,
  0x00, 0xe0, 0xff, 0x7f, 0x00, 0x00, 0x00, 0xe0, 0xff, 0x7b, 0x00, 0x00,
  0x00, 0xe0, 0xff, 0x78, 0x00, 0x00, 0x00, 0xe0, 0x3f, 0x78, 0x00, 0x00,
  0x00, 0xe0, 0x1f, 0x78, 0x00, 0x00, 0x00, 0xe0, 0x07, 0x78, 0x00, 0x00,
  0x00, 0xe0, 0x03, 0x78, 0x00, 0x00, 0x00, 0xe0, 0x00, 0x78, 0x00, 0x00,
  0x00, 0x20, 0x00, 0x78, 0x00, 0x00, 0x00, 0x00, 0x00, 0x78, 0x00, 0x00,
  0x00, 0x00, 0x00, 0x78, 0x00, 0x00, 0x00, 0x00, 0x00, 0x00, 0x00, 0x00,
  0x00, 0x00, 0x00, 0x00, 0x00, 0x00, 0x00, 0x00, 0x00, 0x00, 0x00, 0x00,
  0x00, 0x00, 0x00, 0x00, 0x00, 0x00, 0x00, 0x00, 0x00, 0x00, 0x00, 0x00,
  };
