#define pause_width 48
#define pause_height 32
static unsigned char pause_bits[] = {
  0x00, 0x00, 0x00, 0x00, 0x00, 0x00, 0x00, 0x00, 0x00, 0x00, 0x00, 0x00,
  0x00, 0x00, 0x00, 0x00, 0x00, 0x00, 0x00, 0x00, 0x00, 0x00, 0x00, 0x00,
  0x00, 0x00, 0x00, 0x00, 0x00, 0x00, 0x00, 0x00, 0x3c, 0x3c, 0x00, 0x00,
  0x00, 0x00, 0x3c, 0x3c, 0x00, 0x00, 0x00, 0x00, 0x3c, 0x3c, 0x00, 0x00,
  0x00, 0x00, 0x3c, 0x3c, 0x00, 0x00, 0x00, 0x00, 0x3c, 0x3c, 0x00, 0x00,
  0x00, 0x00, 0x3c, 0x3c, 0x00, 0x00, 0x00, 0x00, 0x3c, 0x3c, 0x00, 0x00,
  0x00, 0x00, 0x3c, 0x3c, 0x00, 0x00, 0x00, 0x00, 0x3c, 0x3c, 0x00, 0x00,
  0x00, 0x00, 0x3c, 0x3c, 0x00, 0x00, 0x00, 0x00, 0x3c, 0x3c, 0x00, 0x00,
  0x00, 0x00, 0x3c, 0x3c, 0x00, 0x00, 0x00, 0x00, 0x3c, 0x3c, 0x00, 0x00,
  0x00, 0x00, 0x3c, 0x3c, 0x00, 0x00, 0x00, 0x00, 0x3c, 0x3c, 0x00, 0x00,
  0x00, 0x00, 0x3c, 0x3c, 0x00, 0x00, 0x00, 0x00, 0x3c, 0x3c, 0x00, 0x00,
  0x00, 0x00, 0x3c, 0x3c, 0x00, 0x00, 0x00, 0x00, 0x3c, 0x3c, 0x00, 0x00,
  0x00, 0x00, 0x3c, 0x3c, 0x00, 0x00, 0x00, 0x00, 0x3c, 0x3c, 0x00, 0x00,
  0x00, 0x00, 0x3c, 0x3c, 0x00, 0x00, 0x00, 0x00, 0x00, 0x00, 0x00, 0x00,
  0x00, 0x00, 0x00, 0x00, 0x00, 0x00, 0x00, 0x00, 0x00, 0x00, 0x00, 0x00,
  0x00, 0x00, 0x00, 0x00, 0x00, 0x00, 0x00, 0x00, 0x00, 0x00, 0x00, 0x00,
  };
