#define prev1_width 48
#define prev1_height 32
static char prev1_bits[] = {
 0x00,0x00,0x00,0x00,0x00,0x00,0x00,0x00,0x00,0x00,0x00,0x00,0x00,0x00,0x00,
 0x00,0x00,0x00,0x00,0x00,0x00,0x00,0x00,0x00,0x00,0x00,0x00,0x00,0x00,0x00,
 0x00,0x00,0x1e,0x00,0x00,0x00,0x00,0x00,0x1e,0x00,0x00,0x00,0x00,0x00,0x1e,
 0x00,0x04,0x00,0x00,0x00,0x1e,0x00,0x07,0x00,0x00,0x00,0x1e,0xc0,0x07,0x00,
 0x00,0x00,0x1e,0xe0,0x07,0x00,0x00,0x00,0x1e,0xf8,0x07,0x00,0x00,0x00,0x1e,
 0xfc,0x07,0x00,0x00,0x00,0x1e,0xff,0x07,0x00,0x00,0x00,0xde,0xff,0x07,0x00,
 0x00,0x00,0xfe,0xff,0x07,0x00,0x00,0x00,0xfe,0xff,0x07,0x00,0x00,0x00,0xde,
 0xff,0x07,0x00,0x00,0x00,0x1e,0xff,0x07,0x00,0x00,0x00,0x1e,0xfc,0x07,0x00,
 0x00,0x00,0x1e,0xf8,0x07,0x00,0x00,0x00,0x1e,0xe0,0x07,0x00,0x00,0x00,0x1e,
 0xc0,0x07,0x00,0x00,0x00,0x1e,0x00,0x07,0x00,0x00,0x00,0x1e,0x00,0x04,0x00,
 0x00,0x00,0x1e,0x00,0x00,0x00,0x00,0x00,0x1e,0x00,0x00,0x00,0x00,0x00,0x00,
 0x00,0x00,0x00,0x00,0x00,0x00,0x00,0x00,0x00,0x00,0x00,0x00,0x00,0x00,0x00,
 0x00,0x00,0x00,0x00,0x00,0x00,0x00,0x00,0x00,0x00,0x00,0x00};
