#define stipple90_width 8
#define stipple90_height 8
static char stipple90_bits[] = {
   0x7e, 0xff, 0xbb, 0xff, 0xef, 0xff, 0xbb, 0xff};
