#define stipple80_width 8
#define stipple80_height 8
static char stipple80_bits[] = {
   0xee, 0xff, 0x55, 0xff, 0xee, 0xff, 0x55, 0xff};
