#define stipple10_width 8
#define stipple10_height 8
static char stipple10_bits[] = {
   0x81, 0x00, 0x44, 0x00, 0x10, 0x00, 0x44, 0x00};
