#define stipple30_width 8
#define stipple30_height 8
static char stipple30_bits[] = {
   0x88, 0x55, 0x00, 0x55, 0x88, 0x55, 0x00, 0x55};
