#define stipple70_width 8
#define stipple70_height 8
static char stipple70_bits[] = {
   0x77, 0xaa, 0xff, 0xaa, 0x77, 0xaa, 0xff, 0xaa};
