#define stipple20_width 8
#define stipple20_height 8
static char stipple20_bits[] = {
   0x11, 0x00, 0xaa, 0x00, 0x11, 0x00, 0xaa, 0x00};
