#define stipple60_width 8
#define stipple60_height 8
static char stipple60_bits[] = {
   0x77, 0xaa, 0x5d, 0xaa, 0x77, 0xaa, 0xdd, 0xaa};
