#define stipple40_width 8
#define stipple40_height 8
static char stipple40_bits[] = {
   0x88, 0x55, 0xa2, 0x55, 0x88, 0x55, 0x22, 0x55};
